<svg width="41" height="35" viewBox="0 0 41 35" fill="none" xmlns="http://www.w3.org/2000/svg">
<path d="M20.5 0.5C17.8079 0.5 15.1422 0.950635 12.655 1.82618C10.1678 2.70172 7.90791 3.98502 6.00431 5.6028C2.15982 8.87007 0 13.3014 0 17.9221C0 25.6226 5.8835 32.1559 14.022 34.473C15.047 34.6124 15.375 34.0723 15.375 33.6019C15.375 33.2012 15.375 32.1036 15.375 30.6576C9.6965 31.7029 8.487 28.323 8.487 28.323C7.544 26.3021 6.2115 25.762 6.2115 25.762C4.346 24.6818 6.355 24.7167 6.355 24.7167C8.405 24.8386 9.4915 26.5111 9.4915 26.5111C11.275 29.1593 14.2885 28.3753 15.457 27.9572C15.6415 26.8247 16.1745 26.0582 16.7485 25.6226C12.1975 25.1871 7.421 23.6888 7.421 17.051C7.421 15.1171 8.2 13.5665 9.5325 12.3296C9.3275 11.894 8.61 10.0821 9.7375 7.73015C9.7375 7.73015 11.4595 7.25976 15.375 9.5072C16.9945 9.12392 18.7575 8.93228 20.5 8.93228C22.2425 8.93228 24.0055 9.12392 25.625 9.5072C29.5405 7.25976 31.2625 7.73015 31.2625 7.73015C32.39 10.0821 31.6725 11.894 31.4675 12.3296C32.8 13.5665 33.579 15.1171 33.579 17.051C33.579 23.7062 28.782 25.1696 24.2105 25.6052C24.9485 26.1453 25.625 27.208 25.625 28.8283V33.6019C25.625 34.0723 25.953 34.6298 26.9985 34.473C35.137 32.1385 41 25.6226 41 17.9221C41 15.6342 40.4698 13.3687 39.4395 11.2549C38.4093 9.14118 36.8993 7.22059 34.9957 5.6028C33.0921 3.98502 30.8322 2.70172 28.345 1.82618C25.8578 0.950635 23.1921 0.5 20.5 0.5Z" fill="#FCFAFA"/>
</svg>
