<svg width="34" height="19" viewBox="0 0 34 19" fill="none" xmlns="http://www.w3.org/2000/svg">
<path d="M32.7479 1.72062C32.9746 1.0175 32.7479 0.5 31.6575 0.5H28.0492C27.1303 0.5 26.7076 0.944375 26.4809 1.43937C26.4809 1.43937 24.643 5.55125 22.0456 8.2175C21.2063 8.98812 20.8203 9.23563 20.3609 9.23563C20.1342 9.23563 19.785 8.98812 19.785 8.285V1.72062C19.785 0.876875 19.5277 0.5 18.7681 0.5H13.0953C12.5195 0.5 12.1764 0.89375 12.1764 1.25937C12.1764 2.05812 13.4751 2.24375 13.6099 4.49375V9.37625C13.6099 10.445 13.4016 10.6419 12.9422 10.6419C11.7169 10.6419 8.73964 6.51312 6.97531 1.78813C6.62 0.87125 6.27081 0.5 5.34576 0.5H1.73748C0.708288 0.5 0.5 0.944375 0.5 1.43937C0.5 2.31687 1.72522 6.67625 6.20342 12.4363C9.18684 16.3681 13.3894 18.5 17.2121 18.5C19.5094 18.5 19.7912 18.0275 19.7912 17.2119C19.7912 13.4544 19.5829 13.1 20.7346 13.1C21.2676 13.1 22.1865 13.3475 24.3306 15.2431C26.7811 17.4931 27.1854 18.5 28.5576 18.5H32.1659C33.1951 18.5 33.7158 18.0275 33.4157 17.0938C32.7295 15.1306 28.0921 11.0919 27.8838 10.8219C27.3508 10.1919 27.504 9.91062 27.8838 9.34812C27.8899 9.3425 32.2946 3.65 32.7479 1.72062Z" fill="white"/>
</svg>
